<?xml version="1.0" encoding="utf-8"?>
<!-- Generator: Adobe Illustrator 27.5.0, SVG Export Plug-In . SVG Version: 6.00 Build 0)  -->
<svg version="1.1" xmlns="http://www.w3.org/2000/svg" xmlns:xlink="http://www.w3.org/1999/xlink" x="0px" y="0px"
	 viewBox="0 0 750 500" style="enable-background:new 0 0 750 500;" xml:space="preserve">
<g id="BACKGROUND">
	<rect style="fill:#FFFEFD;" width="750" height="500"/>
</g>
<g id="OBJECTS">
	<g>
		<defs>
			<rect id="SVGID_1_" width="750" height="500"/>
		</defs>
		<clipPath id="SVGID_00000158715785341810961190000010386078930602087101_">
			<use xlink:href="#SVGID_1_"  style="overflow:visible;"/>
		</clipPath>
		<polygon style="clip-path:url(#SVGID_00000158715785341810961190000010386078930602087101_);fill:#F6F6F6;" points="
			290.697,-63.314 834.507,333.109 834.507,-63.314 		"/>
		<polygon style="clip-path:url(#SVGID_00000158715785341810961190000010386078930602087101_);fill:#F6F6F6;" points="
			473.661,568.061 -70.15,171.639 -70.15,568.061 		"/>
		<g style="clip-path:url(#SVGID_00000158715785341810961190000010386078930602087101_);">
			<path style="fill:#EBC6B9;" d="M191.47-27.375V95.987c0,6.62-2.68,12.6-7.01,16.94c-4.34,4.33-10.32,7.01-16.93,7.01
				c-13.23,0-23.95-10.73-23.95-23.95V64.095c-0.04-13.2-10.75-23.88-23.95-23.88c-6.61,0-12.6,2.68-16.93,7.01
				c-4.2,4.2-6.85,9.95-7.02,16.32v44.25c0,4.57-1.85,8.71-4.84,11.7c-3,3-7.14,4.85-11.71,4.85c-9.14,0-16.55-7.41-16.55-16.55
				v-80.48c0-13.23-10.72-23.95-23.95-23.95c-6.61,0-12.6,2.68-16.93,7.01c-4.2,4.2-6.85,9.95-7.01,16.32v-54.07H191.47z"/>
			<path style="fill:#EBC6B9;" d="M38.309,275.765L38.309,275.765c-31.866,0-57.698-25.832-57.698-57.697l0-227.115H95.999
				l0.008,227.113C96.007,249.932,70.175,275.765,38.309,275.765z"/>
			<path style="fill:#EBC6B9;" d="M563.698,262.119L563.698,262.119c0-34.665,28.102-62.767,62.767-62.767h247.07v125.527
				l-247.069,0.008C591.801,324.888,563.698,296.785,563.698,262.119z"/>
			<g>
				<g>
					<g>
						<path style="fill:#F6F6F6;" d="M750,202.356c-33.006,0-59.763,26.757-59.763,59.764s26.757,59.764,59.763,59.764V202.356z"/>
					</g>
				</g>
				<path style="fill:#CEE4E4;" d="M750,227.572c-19.08,0-34.547,15.467-34.547,34.547c0,19.08,15.467,34.547,34.547,34.547V227.572
					z"/>
			</g>
			<path style="fill:#E8E5E3;" d="M449.009,52.295H346.265c-22.681,0-41.068-18.387-41.068-41.068v-61.782
				c0-22.681,18.387-41.068,41.068-41.068h102.744c22.681,0,41.068,18.387,41.068,41.068v61.782
				C490.077,33.908,471.69,52.295,449.009,52.295z"/>
			<path style="fill:#EBC6B9;" d="M578.576,94.55H475.832c-22.681,0-41.068-18.387-41.068-41.068V-8.3
				c0-22.681,18.387-41.068,41.068-41.068h102.744c22.681,0,41.068,18.387,41.068,41.068v61.782
				C619.644,76.163,601.257,94.55,578.576,94.55z"/>
			<g>
				<g>
					<path style="fill:none;stroke:#142341;stroke-width:2;stroke-miterlimit:10;" d="M499.037,0.391h88.44V106.86
						c0,24.422-19.798,44.22-44.22,44.22h0c-24.422,0-44.22-19.798-44.22-44.22V0.391z"/>
					<g>
						
							<line style="fill:none;stroke:#142341;stroke-width:2;stroke-miterlimit:10;" x1="534.895" y1="109.018" x2="497.904" y2="153.329"/>
						
							<line style="fill:none;stroke:#142341;stroke-width:2;stroke-miterlimit:10;" x1="484.294" y1="170.458" x2="474.207" y2="182.541"/>
					</g>
					<g>
						<line style="fill:none;stroke:#142341;stroke-width:2;stroke-miterlimit:10;" x1="618.391" y1="0" x2="581.4" y2="44.311"/>
					</g>
				</g>
				<path style="fill:#CEE4E4;" d="M587.478,0v0.39c0,24.42-19.8,44.22-44.22,44.22c-24.42,0-44.22-19.8-44.22-44.22V0H587.478z"/>
			</g>
			<path style="fill:#E8E5E3;" d="M454.487,651.602H287.847c-36.787,0-66.609-29.822-66.609-66.609V484.789
				c0-36.787,29.822-66.609,66.609-66.609h166.641c36.787,0,66.609,29.822,66.609,66.609v100.204
				C521.096,621.781,491.274,651.602,454.487,651.602z"/>
			<g>
				<path style="fill:none;stroke:#FFFFFF;stroke-width:0.9157;stroke-miterlimit:10;" d="M107.952,432.863
					c0,1.628-1.32,2.947-2.947,2.947c-1.628,0-2.947-1.319-2.947-2.947c0-1.628,1.319-2.947,2.947-2.947
					C106.633,429.915,107.952,431.235,107.952,432.863z"/>
				<path style="fill:none;stroke:#142341;stroke-width:2;stroke-miterlimit:10;" d="M152.229,501.72H56.61V386.609
					c0-26.404,21.405-47.809,47.809-47.809l0,0c26.404,0,47.809,21.405,47.809,47.809V501.72z"/>
				<path style="fill:#CEE4E4;" d="M74.924,483.407v-96.798c0-16.265,13.232-29.496,29.496-29.496
					c16.264,0,29.496,13.232,29.496,29.496v96.798H74.924z"/>
				<path style="fill:#FFFEFD;" d="M185.01,442.564H96.894c-4.353,0-7.882-3.529-7.882-7.882l0,0c0-4.353,3.529-7.882,7.882-7.882
					h88.116c4.353,0,7.882,3.529,7.882,7.882l0,0C192.892,439.035,189.363,442.564,185.01,442.564z"/>
				<rect x="172.299" y="472.842" style="fill:#EBC6B9;" width="29.613" height="29.613"/>
				<g>
					
						<line style="fill:none;stroke:#142341;stroke-width:2;stroke-miterlimit:10;" x1="158.102" y1="338.878" x2="114.425" y2="391.198"/>
					
						<line style="fill:none;stroke:#142341;stroke-width:2;stroke-miterlimit:10;" x1="44.715" y1="463.306" x2="32.805" y2="477.573"/>
				</g>
			</g>
			<path style="fill:#FFFEFD;" d="M548.778,75.925h-88.116c-4.353,0-7.882-3.529-7.882-7.882v0c0-4.353,3.529-7.882,7.882-7.882
				h88.116c4.353,0,7.882,3.529,7.882,7.882v0C556.66,72.396,553.131,75.925,548.778,75.925z"/>
		</g>
		<g style="clip-path:url(#SVGID_00000158715785341810961190000010386078930602087101_);">
			<g>
				<path style="fill:#142341;" d="M700.123,77.3c-4.584,0-9.169-1.745-12.659-5.235l0,0c-3.381-3.382-5.244-7.878-5.244-12.659
					c0-4.782,1.862-9.278,5.244-12.659l73.622-73.621c3.381-3.382,7.877-5.244,12.659-5.244c4.782,0,9.278,1.862,12.659,5.244
					c6.98,6.98,6.98,18.337,0,25.317l-73.622,73.623C709.292,75.555,704.707,77.3,700.123,77.3z M688.878,70.651
					c6.2,6.2,16.289,6.2,22.49,0L784.99-2.972c6.2-6.2,6.2-16.289,0-22.489c-3.004-3.004-6.997-4.658-11.245-4.658
					c-4.248,0-8.241,1.654-11.245,4.658l-73.622,73.622c-3.003,3.004-4.658,6.997-4.658,11.245
					C684.221,63.653,685.875,67.647,688.878,70.651L688.878,70.651z"/>
			</g>
		</g>
		<g style="clip-path:url(#SVGID_00000158715785341810961190000010386078930602087101_);">
			<g>
				<path style="fill:#142341;" d="M-23.967,404.867c-4.584,0-9.169-1.745-12.659-5.235l0,0c-3.381-3.382-5.244-7.878-5.244-12.659
					c0-4.782,1.862-9.278,5.244-12.659l73.622-73.621c3.381-3.382,7.877-5.244,12.659-5.244c4.782,0,9.278,1.862,12.659,5.244
					c6.98,6.98,6.98,18.337,0,25.317l-73.622,73.623C-14.798,403.122-19.383,404.867-23.967,404.867z M-35.212,398.218
					c6.2,6.2,16.289,6.2,22.49,0L60.9,324.595c6.2-6.2,6.2-16.289,0-22.489c-3.004-3.004-6.997-4.658-11.245-4.658
					c-4.248,0-8.241,1.654-11.245,4.658l-73.622,73.622c-3.003,3.004-4.658,6.997-4.658,11.245
					C-39.869,391.22-38.215,395.214-35.212,398.218L-35.212,398.218z"/>
			</g>
		</g>
		<path style="clip-path:url(#SVGID_00000158715785341810961190000010386078930602087101_);fill:#CEE4E4;" d="M454.387-43.23v96.798
			c0,16.265-13.232,29.496-29.496,29.496c-16.264,0-29.496-13.231-29.496-29.496V-43.23H454.387z"/>
	</g>
	<g>
		<g>
			<g>
				<path style="fill:#F6F6F6;" d="M0,119.701c33.006,0,59.763-26.757,59.763-59.764S33.006,0.173,0,0.173V119.701z"/>
			</g>
		</g>
		<path style="fill:#CEE4E4;" d="M0,94.484c19.08,0,34.547-15.467,34.547-34.547S19.08,25.39,0,25.39V94.484z"/>
	</g>
	<g>
		<g>
			<g>
				<path style="fill:#F6F6F6;" d="M434.764,497.956c0-33.006-26.757-59.763-59.764-59.763s-59.764,26.757-59.764,59.763H434.764z"
					/>
			</g>
		</g>
		<path style="fill:#EBC6B9;" d="M409.547,497.956c0-19.08-15.467-34.547-34.547-34.547s-34.547,15.467-34.547,34.547H409.547z"/>
	</g>
	<g>
		<g>
			<g>
				<rect x="30.944" y="231.639" style="fill:#FFFEFD;" width="7.365" height="7.365"/>
				<rect x="30.944" y="211.639" style="fill:#FFFEFD;" width="7.365" height="7.365"/>
				<rect x="30.944" y="191.639" style="fill:#FFFEFD;" width="7.365" height="7.365"/>
				<rect x="30.944" y="171.639" style="fill:#FFFEFD;" width="7.365" height="7.365"/>
			</g>
			<g>
				
					<rect x="604.993" y="261.662" transform="matrix(-1.836970e-16 1 -1 -1.836970e-16 874.02 -343.3313)" style="fill:#FFFEFD;" width="7.365" height="7.365"/>
				
					<rect x="624.993" y="261.662" transform="matrix(-1.836970e-16 1 -1 -1.836970e-16 894.02 -363.3313)" style="fill:#FFFEFD;" width="7.365" height="7.365"/>
				
					<rect x="644.993" y="261.662" transform="matrix(-1.836970e-16 1 -1 -1.836970e-16 914.02 -383.3313)" style="fill:#FFFEFD;" width="7.365" height="7.365"/>
				
					<rect x="664.993" y="261.662" transform="matrix(-1.836970e-16 1 -1 -1.836970e-16 934.02 -403.3313)" style="fill:#FFFEFD;" width="7.365" height="7.365"/>
			</g>
			<g>
				<g>
					<path style="fill:#142341;" d="M102.859,61.901L102.859,61.901L102.859,61.901c0,9.143,7.411,16.554,16.554,16.554l0,0
						C119.413,69.312,112.002,61.901,102.859,61.901z"/>
					<path style="fill:#142341;" d="M135.967,61.901L135.967,61.901L135.967,61.901c0,9.143-7.412,16.554-16.554,16.554l0,0
						C119.413,69.312,126.825,61.901,135.967,61.901z"/>
				</g>
				<g>
					<path style="fill:#142341;" d="M102.859,81.073L102.859,81.073L102.859,81.073c0,9.143,7.411,16.554,16.554,16.554l0,0
						C119.413,88.485,112.002,81.073,102.859,81.073z"/>
					<path style="fill:#142341;" d="M135.967,81.073L135.967,81.073L135.967,81.073c0,9.143-7.412,16.554-16.554,16.554l0,0
						C119.413,88.485,126.825,81.073,135.967,81.073z"/>
				</g>
				<g>
					<path style="fill:#142341;" d="M102.859,100.246L102.859,100.246L102.859,100.246c0,9.142,7.411,16.554,16.554,16.554l0,0
						C119.413,107.657,112.002,100.246,102.859,100.246z"/>
					<path style="fill:#142341;" d="M135.967,100.246L135.967,100.246L135.967,100.246c0,9.142-7.412,16.554-16.554,16.554l0,0
						C119.413,107.657,126.825,100.246,135.967,100.246z"/>
				</g>
				<g>
					<path style="fill:#142341;" d="M102.859,119.418L102.859,119.418L102.859,119.418c0,9.142,7.411,16.554,16.554,16.554l0,0
						C119.413,126.83,112.002,119.418,102.859,119.418z"/>
					<path style="fill:#142341;" d="M135.967,119.418L135.967,119.418L135.967,119.418c0,9.143-7.412,16.554-16.554,16.554l0,0
						C119.413,126.83,126.825,119.418,135.967,119.418z"/>
				</g>
			</g>
			<g>
				<g>
					<path style="fill:#142341;" d="M680.34,374.894L680.34,374.894L680.34,374.894c0,9.142,7.411,16.554,16.554,16.554l0,0
						C696.894,382.306,689.482,374.894,680.34,374.894z"/>
					<path style="fill:#142341;" d="M713.448,374.894L713.448,374.894L713.448,374.894c0,9.142-7.411,16.554-16.554,16.554l0,0
						C696.894,382.306,704.305,374.894,713.448,374.894z"/>
				</g>
				<g>
					<path style="fill:#142341;" d="M680.34,394.067L680.34,394.067L680.34,394.067c0,9.143,7.411,16.554,16.554,16.554l0,0
						C696.894,401.478,689.482,394.067,680.34,394.067z"/>
					<path style="fill:#142341;" d="M713.448,394.067L713.448,394.067L713.448,394.067c0,9.142-7.411,16.554-16.554,16.554l0,0
						C696.894,401.478,704.305,394.067,713.448,394.067z"/>
				</g>
				<g>
					<path style="fill:#142341;" d="M680.34,413.239L680.34,413.239L680.34,413.239c0,9.142,7.411,16.554,16.554,16.554l0,0
						C696.894,420.651,689.482,413.239,680.34,413.239z"/>
					<path style="fill:#142341;" d="M713.448,413.239L713.448,413.239L713.448,413.239c0,9.142-7.411,16.554-16.554,16.554l0,0
						C696.894,420.651,704.305,413.239,713.448,413.239z"/>
				</g>
				<g>
					<path style="fill:#142341;" d="M680.34,432.412L680.34,432.412L680.34,432.412c0,9.142,7.411,16.554,16.554,16.554l0,0
						C696.894,439.823,689.482,432.412,680.34,432.412z"/>
					<path style="fill:#142341;" d="M713.448,432.412L713.448,432.412L713.448,432.412c0,9.142-7.411,16.554-16.554,16.554l0,0
						C696.894,439.823,704.305,432.412,713.448,432.412z"/>
				</g>
			</g>
		</g>
		<g>
			<g>
				<circle style="fill:#CEE4E4;" cx="258.508" cy="39.839" r="28.988"/>
				<g>
					<g>
						<path style="fill:#142341;" d="M246.145,82.068L246.145,82.068L246.145,82.068c-1.219-0.212-2.041-1.373-1.829-2.599l0,0
							c0.212-1.22,1.38-2.041,2.599-1.823l0,0c1.22,0.212,2.041,1.373,1.829,2.593l0,0c-0.192,1.098-1.142,1.861-2.214,1.861l0,0
							C246.408,82.1,246.273,82.094,246.145,82.068z M254.007,80.233c-0.212-1.219,0.604-2.381,1.823-2.599l0,0
							c1.226-0.212,2.388,0.604,2.606,1.823l0,0c0.212,1.226-0.604,2.388-1.823,2.606l0,0c-0.135,0.019-0.263,0.032-0.392,0.032l0,0
							C255.149,82.094,254.199,81.33,254.007,80.233z M236.293,78.5c-1.072-0.623-1.444-1.996-0.822-3.068l0,0
							c0.622-1.078,1.996-1.444,3.068-0.822l0,0c1.078,0.616,1.444,1.99,0.828,3.068l0,0c-0.417,0.719-1.175,1.123-1.951,1.123l0,0
							C237.038,78.802,236.652,78.705,236.293,78.5z M263.377,77.653c-0.617-1.072-0.257-2.452,0.821-3.068l0,0
							c1.072-0.622,2.446-0.256,3.068,0.815l0,0c0.622,1.072,0.257,2.445-0.815,3.067l0,0c0,0,0,0,0,0.007l0,0
							c-0.353,0.205-0.744,0.301-1.123,0.301l0,0C264.551,78.776,263.794,78.372,263.377,77.653z M228.27,71.774
							c-0.802-0.95-0.681-2.362,0.27-3.164l0,0c0.949-0.796,2.368-0.674,3.164,0.27l0,0c0.802,0.95,0.681,2.368-0.27,3.17l0,0
							c-0.417,0.354-0.931,0.527-1.444,0.527l0,0C229.348,72.576,228.713,72.307,228.27,71.774z M271.297,72.011
							c-0.95-0.796-1.072-2.214-0.276-3.164l0,0c0.802-0.95,2.214-1.079,3.164-0.277l0,0c0.95,0.796,1.072,2.214,0.276,3.165l0,0
							c-0.443,0.526-1.078,0.802-1.72,0.802l0,0C272.234,72.538,271.721,72.364,271.297,72.011z M223.014,62.724
							c-0.424-1.168,0.174-2.458,1.341-2.882l0,0c1.162-0.43,2.452,0.173,2.882,1.335l0,0c0.424,1.161-0.18,2.458-1.341,2.882l0,0
							c-0.257,0.096-0.513,0.135-0.77,0.135l0,0C224.208,64.194,223.348,63.629,223.014,62.724z M276.823,64.008
							c-1.168-0.424-1.765-1.714-1.341-2.876l0,0c0.424-1.168,1.714-1.771,2.882-1.341l0,0c1.161,0.424,1.765,1.714,1.341,2.875l0,0
							c-0.333,0.912-1.194,1.483-2.111,1.483l0,0C277.337,64.149,277.08,64.104,276.823,64.008z M221.185,52.417
							c0-1.245,1.001-2.253,2.24-2.253l0,0c1.245-0.006,2.253,1.001,2.253,2.24l0,0c0,1.238-1.002,2.252-2.24,2.252l0,0
							C222.192,54.657,221.185,53.656,221.185,52.417z M277.022,52.353c0-0.006,0-0.013,0-0.019l0,0c0-0.032,0-0.058,0-0.083v-0.006
							c-0.006-1.239,0.995-2.246,2.24-2.253l0,0c1.239,0,2.246,0.995,2.253,2.24l0,0c0,0.019,0,0.045,0,0.065l0,0
							c0,0.019,0,0.038,0,0.058l0,0c0,1.239-1.008,2.246-2.246,2.246l0,0C278.029,54.599,277.022,53.591,277.022,52.353z
							 M224.323,44.972c-1.168-0.424-1.771-1.714-1.348-2.876l0,0l0,0l0,0c0.417-1.168,1.707-1.771,2.875-1.347l0,0
							c1.168,0.417,1.771,1.707,1.348,2.875l0,0c-0.334,0.911-1.194,1.483-2.112,1.483l0,0
							C224.83,45.107,224.573,45.062,224.323,44.972z M275.45,43.477c-0.43-1.162,0.167-2.452,1.329-2.882l0,0
							c1.161-0.43,2.451,0.167,2.881,1.329l0,0c0.43,1.168-0.167,2.458-1.328,2.888l0,0c-0.257,0.09-0.52,0.135-0.776,0.135l0,0
							C276.637,44.946,275.783,44.388,275.45,43.477z M228.482,36.179c-0.956-0.796-1.085-2.214-0.289-3.164l0,0
							c0.796-0.95,2.214-1.079,3.164-0.283l0,0c0.956,0.796,1.078,2.214,0.289,3.164l0,0c-0.449,0.533-1.085,0.809-1.727,0.809l0,0
							C229.412,36.706,228.899,36.532,228.482,36.179z M270.957,35.781c-0.802-0.943-0.68-2.362,0.27-3.164l0,0
							c0.943-0.802,2.362-0.681,3.164,0.263l0,0c0.796,0.95,0.681,2.362-0.263,3.164l0,0c-0.424,0.359-0.944,0.533-1.451,0.533l0,0
							C272.035,36.577,271.4,36.308,270.957,35.781z M235.382,29.337c-0.623-1.072-0.257-2.452,0.815-3.074l0,0l0,0l0,0
							c1.072-0.622,2.446-0.256,3.068,0.815l0,0c0.629,1.072,0.263,2.445-0.809,3.068l0,0c-0.353,0.212-0.745,0.308-1.13,0.308l0,0
							C236.556,30.454,235.798,30.056,235.382,29.337z M264.109,30.069c-1.072-0.617-1.444-1.99-0.828-3.062l0,0
							c0.616-1.078,1.996-1.45,3.068-0.828l0,0l0,0l0,0c1.078,0.616,1.444,1.983,0.828,3.062l0,0
							c-0.411,0.725-1.168,1.129-1.951,1.129l0,0C264.847,30.371,264.462,30.274,264.109,30.069z M244.213,25.262
							c-0.218-1.22,0.59-2.388,1.816-2.606l0,0l0,0l0,0c1.219-0.218,2.387,0.597,2.605,1.816l0,0
							c0.218,1.226-0.597,2.388-1.823,2.606h0.006c-0.135,0.026-0.27,0.038-0.398,0.038l0,0
							C245.355,27.117,244.405,26.346,244.213,25.262z M255.733,27.053c-1.226-0.212-2.041-1.374-1.836-2.593l0,0
							c0.212-1.226,1.373-2.048,2.599-1.836l0,0c0,0,0,0-0.006,0l0,0c1.226,0.212,2.048,1.373,1.836,2.593l0,0
							c-0.186,1.097-1.136,1.868-2.214,1.868l0,0C255.99,27.085,255.861,27.072,255.733,27.053z"/>
					</g>
				</g>
			</g>
			<g>
				<circle style="fill:#CEE4E4;" cx="586.887" cy="463.41" r="28.988"/>
				<g>
					<g>
						<path style="fill:#142341;" d="M603.305,484.745L603.305,484.745L603.305,484.745c-1.219-0.212-2.041-1.373-1.829-2.599l0,0
							c0.212-1.22,1.38-2.041,2.599-1.823l0,0c1.22,0.212,2.041,1.373,1.829,2.593l0,0c-0.192,1.098-1.142,1.861-2.214,1.861l0,0
							C603.569,484.777,603.434,484.77,603.305,484.745z M611.167,482.909c-0.212-1.219,0.604-2.381,1.823-2.599l0,0
							c1.226-0.212,2.388,0.604,2.606,1.823l0,0c0.212,1.226-0.604,2.388-1.823,2.606l0,0c-0.135,0.019-0.263,0.032-0.392,0.032l0,0
							C612.31,484.77,611.36,484.006,611.167,482.909z M593.454,481.177c-1.072-0.623-1.444-1.996-0.822-3.068l0,0
							c0.622-1.078,1.996-1.444,3.068-0.822l0,0c1.078,0.616,1.444,1.99,0.828,3.068l0,0c-0.417,0.719-1.175,1.123-1.951,1.123l0,0
							C594.198,481.478,593.813,481.382,593.454,481.177z M620.538,480.329c-0.617-1.072-0.257-2.452,0.821-3.068l0,0
							c1.072-0.622,2.446-0.256,3.068,0.815l0,0c0.622,1.072,0.257,2.445-0.815,3.067l0,0c0,0,0,0,0,0.007l0,0
							c-0.353,0.205-0.744,0.301-1.123,0.301l0,0C621.712,481.452,620.955,481.048,620.538,480.329z M585.431,474.45
							c-0.802-0.949-0.681-2.362,0.27-3.164l0,0c0.95-0.796,2.368-0.674,3.164,0.27l0,0c0.802,0.949,0.681,2.368-0.269,3.17l0,0
							c-0.417,0.354-0.931,0.527-1.444,0.527l0,0C586.509,475.252,585.874,474.983,585.431,474.45z M628.458,474.688
							c-0.95-0.796-1.072-2.214-0.276-3.164l0,0c0.802-0.95,2.214-1.079,3.164-0.276l0,0c0.95,0.796,1.072,2.214,0.276,3.165l0,0
							c-0.443,0.526-1.078,0.802-1.72,0.802l0,0C629.395,475.214,628.882,475.04,628.458,474.688z M580.174,465.401
							c-0.424-1.168,0.174-2.458,1.341-2.882l0,0c1.162-0.43,2.452,0.173,2.882,1.335l0,0c0.424,1.161-0.18,2.458-1.341,2.882l0,0
							c-0.257,0.096-0.513,0.135-0.77,0.135l0,0C581.368,466.871,580.509,466.305,580.174,465.401z M633.984,466.684
							c-1.168-0.424-1.765-1.714-1.341-2.876l0,0c0.424-1.168,1.714-1.771,2.882-1.341l0,0c1.161,0.424,1.765,1.714,1.341,2.875l0,0
							c-0.333,0.912-1.194,1.483-2.111,1.483l0,0C634.498,466.826,634.241,466.78,633.984,466.684z M578.345,455.093
							c0-1.245,1.001-2.253,2.24-2.253l0,0c1.245-0.006,2.253,1.001,2.253,2.24l0,0c0,1.238-1.002,2.253-2.24,2.253l0,0
							C579.353,457.333,578.345,456.332,578.345,455.093z M634.183,455.029c0-0.006,0-0.013,0-0.019l0,0c0-0.032,0-0.058,0-0.083
							v-0.006c-0.006-1.239,0.995-2.246,2.24-2.253l0,0c1.239,0,2.246,0.995,2.253,2.24l0,0c0,0.019,0,0.045,0,0.065l0,0
							c0,0.019,0,0.038,0,0.058l0,0c0,1.238-1.008,2.246-2.246,2.246l0,0C635.19,457.276,634.183,456.268,634.183,455.029z
							 M581.484,447.648c-1.168-0.424-1.771-1.713-1.348-2.876l0,0l0,0l0,0c0.417-1.168,1.707-1.771,2.875-1.348l0,0
							c1.168,0.417,1.771,1.707,1.348,2.875l0,0c-0.334,0.911-1.194,1.483-2.112,1.483l0,0
							C581.991,447.783,581.734,447.738,581.484,447.648z M632.61,446.153c-0.43-1.162,0.167-2.452,1.329-2.882l0,0
							c1.161-0.43,2.451,0.167,2.881,1.329l0,0c0.43,1.168-0.167,2.458-1.328,2.888l0,0c-0.257,0.09-0.52,0.135-0.777,0.135l0,0
							C633.797,447.623,632.944,447.064,632.61,446.153z M585.643,438.855c-0.956-0.796-1.085-2.214-0.289-3.164l0,0
							c0.796-0.95,2.214-1.079,3.164-0.283l0,0c0.956,0.796,1.078,2.214,0.289,3.164l0,0c-0.449,0.533-1.085,0.809-1.727,0.809l0,0
							C586.573,439.382,586.06,439.208,585.643,438.855z M628.118,438.457c-0.802-0.943-0.68-2.362,0.269-3.164l0,0
							c0.943-0.802,2.362-0.681,3.164,0.263l0,0c0.796,0.95,0.681,2.362-0.263,3.164l0,0c-0.424,0.359-0.944,0.533-1.451,0.533l0,0
							C629.196,439.254,628.561,438.984,628.118,438.457z M592.542,432.014c-0.623-1.072-0.257-2.452,0.815-3.074l0,0l0,0l0,0
							c1.072-0.622,2.446-0.256,3.068,0.815l0,0c0.629,1.072,0.263,2.445-0.808,3.068l0,0c-0.353,0.212-0.745,0.308-1.13,0.308l0,0
							C593.717,433.13,592.959,432.733,592.542,432.014z M621.27,432.746c-1.072-0.617-1.444-1.99-0.828-3.062l0,0
							c0.616-1.078,1.996-1.45,3.068-0.828l0,0l0,0l0,0c1.078,0.616,1.444,1.983,0.828,3.062l0,0
							c-0.411,0.725-1.168,1.129-1.951,1.129l0,0C622.007,433.047,621.623,432.951,621.27,432.746z M601.374,427.938
							c-0.218-1.22,0.59-2.388,1.816-2.606l0,0l0,0l0,0c1.219-0.218,2.387,0.597,2.605,1.816l0,0
							c0.218,1.226-0.597,2.388-1.823,2.606h0.006c-0.135,0.026-0.27,0.038-0.398,0.038l0,0
							C602.516,429.793,601.566,429.023,601.374,427.938z M612.894,429.729c-1.226-0.212-2.041-1.374-1.836-2.593l0,0
							c0.212-1.226,1.373-2.048,2.599-1.836l0,0c0,0,0,0-0.006,0l0,0c1.226,0.212,2.048,1.373,1.836,2.593l0,0
							c-0.186,1.098-1.136,1.868-2.214,1.868l0,0C613.151,429.761,613.022,429.748,612.894,429.729z"/>
					</g>
				</g>
			</g>
		</g>
	</g>
</g>
</svg>
