<svg width="750" height="500" viewBox="0 0 750 500" fill="none" xmlns="http://www.w3.org/2000/svg">
<g clip-path="url(#clip0_2926_32)">
<path d="M750 0H0V500H750V0Z" fill="#FFFEFD"/>
<mask id="mask0_2926_32" style="mask-type:luminance" maskUnits="userSpaceOnUse" x="0" y="0" width="750" height="500">
<path d="M750 0H0V500H750V0Z" fill="white"/>
</mask>
<g mask="url(#mask0_2926_32)">
<path d="M290.697 -63.314L834.507 333.109V-63.314H290.697Z" fill="#F6F6F6"/>
</g>
<mask id="mask1_2926_32" style="mask-type:luminance" maskUnits="userSpaceOnUse" x="0" y="0" width="750" height="500">
<path d="M750 0H0V500H750V0Z" fill="white"/>
</mask>
<g mask="url(#mask1_2926_32)">
<path d="M473.661 568.061L-70.1504 171.639V568.061H473.661Z" fill="#F6F6F6"/>
</g>
<mask id="mask2_2926_32" style="mask-type:luminance" maskUnits="userSpaceOnUse" x="0" y="0" width="750" height="500">
<path d="M750 0H0V500H750V0Z" fill="white"/>
</mask>
<g mask="url(#mask2_2926_32)">
<path d="M191.47 -27.375V95.987C191.47 102.607 188.79 108.587 184.46 112.927C180.12 117.257 174.14 119.937 167.53 119.937C154.3 119.937 143.58 109.207 143.58 95.987V64.095C143.54 50.895 132.83 40.215 119.63 40.215C113.02 40.215 107.03 42.895 102.7 47.225C98.5004 51.425 95.8504 57.175 95.6804 63.545V107.795C95.6804 112.365 93.8304 116.505 90.8404 119.495C87.8404 122.495 83.7004 124.345 79.1304 124.345C69.9904 124.345 62.5804 116.935 62.5804 107.795V27.315C62.5804 14.085 51.8604 3.365 38.6304 3.365C32.0204 3.365 26.0304 6.045 21.7004 10.375C17.5004 14.575 14.8504 20.325 14.6904 26.695V-27.375H191.47Z" fill="#EBC6B9"/>
<path d="M38.3093 275.765C6.44333 275.765 -19.3887 249.933 -19.3887 218.068V-9.04712H95.9993L96.0073 218.066C96.0073 249.932 70.1753 275.765 38.3093 275.765Z" fill="#EBC6B9"/>
<path d="M563.698 262.119C563.698 227.454 591.8 199.352 626.465 199.352H873.535V324.879L626.466 324.887C591.801 324.888 563.698 296.785 563.698 262.119Z" fill="#EBC6B9"/>
<path d="M750 202.356C716.994 202.356 690.237 229.113 690.237 262.12C690.237 295.127 716.994 321.884 750 321.884V202.356Z" fill="#F6F6F6"/>
<path d="M750 227.572C730.92 227.572 715.453 243.039 715.453 262.119C715.453 281.199 730.92 296.666 750 296.666V227.572Z" fill="#CEE4E4"/>
<path d="M449.009 52.295H346.265C323.584 52.295 305.197 33.908 305.197 11.227V-50.555C305.197 -73.236 323.584 -91.623 346.265 -91.623H449.009C471.69 -91.623 490.077 -73.236 490.077 -50.555V11.227C490.077 33.908 471.69 52.295 449.009 52.295Z" fill="#E8E5E3"/>
<path d="M578.577 94.5498H475.833C453.152 94.5498 434.765 76.1628 434.765 53.4818V-8.30016C434.765 -30.9812 453.152 -49.3682 475.833 -49.3682H578.577C601.258 -49.3682 619.645 -30.9812 619.645 -8.30016V53.4818C619.645 76.1628 601.258 94.5498 578.577 94.5498Z" fill="#EBC6B9"/>
<path d="M499.037 0.391113H587.477V106.86C587.477 131.282 567.679 151.08 543.257 151.08C518.835 151.08 499.037 131.282 499.037 106.86V0.391113Z" stroke="#142341" stroke-width="2" stroke-miterlimit="10"/>
<path d="M534.895 109.018L497.904 153.329" stroke="#142341" stroke-width="2" stroke-miterlimit="10"/>
<path d="M484.294 170.458L474.207 182.541" stroke="#142341" stroke-width="2" stroke-miterlimit="10"/>
<path d="M618.391 0L581.4 44.311" stroke="#142341" stroke-width="2" stroke-miterlimit="10"/>
<path d="M587.478 0V0.39C587.478 24.81 567.678 44.61 543.258 44.61C518.838 44.61 499.038 24.81 499.038 0.39V0H587.478Z" fill="#CEE4E4"/>
<path d="M454.487 651.602H287.847C251.06 651.602 221.238 621.78 221.238 584.993V484.789C221.238 448.002 251.06 418.18 287.847 418.18H454.488C491.275 418.18 521.097 448.002 521.097 484.789V584.993C521.096 621.781 491.274 651.602 454.487 651.602Z" fill="#E8E5E3"/>
<path d="M107.953 432.863C107.953 434.491 106.633 435.81 105.006 435.81C103.378 435.81 102.059 434.491 102.059 432.863C102.059 431.235 103.378 429.916 105.006 429.916C106.634 429.915 107.953 431.235 107.953 432.863Z" stroke="white" stroke-width="0.9157" stroke-miterlimit="10"/>
<path d="M152.229 501.72H56.6104V386.609C56.6104 360.205 78.0154 338.8 104.419 338.8C130.823 338.8 152.228 360.205 152.228 386.609V501.72H152.229Z" stroke="#142341" stroke-width="2" stroke-miterlimit="10"/>
<path d="M74.9248 483.407V386.609C74.9248 370.344 88.1568 357.113 104.421 357.113C120.685 357.113 133.917 370.345 133.917 386.609V483.407H74.9248Z" fill="#CEE4E4"/>
<path d="M185.011 442.564H96.8947C92.5417 442.564 89.0127 439.035 89.0127 434.682C89.0127 430.329 92.5417 426.8 96.8947 426.8H185.011C189.364 426.8 192.893 430.329 192.893 434.682C192.893 439.035 189.364 442.564 185.011 442.564Z" fill="#FFFEFD"/>
<path d="M201.913 472.842H172.3V502.455H201.913V472.842Z" fill="#EBC6B9"/>
<path d="M158.103 338.878L114.426 391.198" stroke="#142341" stroke-width="2" stroke-miterlimit="10"/>
<path d="M44.7157 463.306L32.8057 477.573" stroke="#142341" stroke-width="2" stroke-miterlimit="10"/>
<path d="M548.778 75.9249H460.662C456.309 75.9249 452.78 72.3959 452.78 68.0429C452.78 63.6899 456.309 60.1609 460.662 60.1609H548.778C553.131 60.1609 556.66 63.6899 556.66 68.0429C556.66 72.3959 553.131 75.9249 548.778 75.9249Z" fill="#FFFEFD"/>
</g>
<mask id="mask3_2926_32" style="mask-type:luminance" maskUnits="userSpaceOnUse" x="0" y="0" width="750" height="500">
<path d="M750 0H0V500H750V0Z" fill="white"/>
</mask>
<g mask="url(#mask3_2926_32)">
<path d="M700.123 77.3001C695.539 77.3001 690.954 75.5551 687.464 72.0651C684.083 68.6831 682.22 64.1871 682.22 59.4061C682.22 54.6241 684.082 50.1281 687.464 46.7471L761.086 -26.8739C764.467 -30.2559 768.963 -32.1179 773.745 -32.1179C778.527 -32.1179 783.023 -30.2559 786.404 -26.8739C793.384 -19.8939 793.384 -8.53692 786.404 -1.55692L712.782 72.0661C709.292 75.5551 704.707 77.3001 700.123 77.3001ZM688.878 70.6511C695.078 76.8511 705.167 76.8511 711.368 70.6511L784.99 -2.97192C791.19 -9.17192 791.19 -19.2609 784.99 -25.4609C781.986 -28.4649 777.993 -30.1189 773.745 -30.1189C769.497 -30.1189 765.504 -28.4649 762.5 -25.4609L688.878 48.1611C685.875 51.1651 684.22 55.1581 684.22 59.4061C684.221 63.6531 685.875 67.6471 688.878 70.6511Z" fill="#142341"/>
</g>
<mask id="mask4_2926_32" style="mask-type:luminance" maskUnits="userSpaceOnUse" x="0" y="0" width="750" height="500">
<path d="M750 0H0V500H750V0Z" fill="white"/>
</mask>
<g mask="url(#mask4_2926_32)">
<path d="M-23.9671 404.867C-28.5511 404.867 -33.1361 403.122 -36.6261 399.632C-40.0071 396.25 -41.8701 391.754 -41.8701 386.973C-41.8701 382.191 -40.0081 377.695 -36.6261 374.314L36.9959 300.693C40.3769 297.311 44.8729 295.449 49.6549 295.449C54.4369 295.449 58.9329 297.311 62.3139 300.693C69.2939 307.673 69.2939 319.03 62.3139 326.01L-11.3081 399.633C-14.7981 403.122 -19.3831 404.867 -23.9671 404.867ZM-35.2121 398.218C-29.0121 404.418 -18.9231 404.418 -12.7221 398.218L60.8999 324.595C67.0999 318.395 67.0999 308.306 60.8999 302.106C57.8959 299.102 53.9029 297.448 49.6549 297.448C45.4069 297.448 41.4139 299.102 38.4099 302.106L-35.2121 375.728C-38.2151 378.732 -39.8701 382.725 -39.8701 386.973C-39.8691 391.22 -38.2151 395.214 -35.2121 398.218Z" fill="#142341"/>
</g>
<mask id="mask5_2926_32" style="mask-type:luminance" maskUnits="userSpaceOnUse" x="0" y="0" width="750" height="500">
<path d="M750 0H0V500H750V0Z" fill="white"/>
</mask>
<g mask="url(#mask5_2926_32)">
<path d="M454.387 -43.23V53.568C454.387 69.833 441.155 83.064 424.891 83.064C408.627 83.064 395.395 69.833 395.395 53.568V-43.23H454.387Z" fill="#CEE4E4"/>
</g>
<path d="M0 119.701C33.006 119.701 59.763 92.9441 59.763 59.9371C59.763 26.9301 33.006 0.173096 0 0.173096V119.701Z" fill="#F6F6F6"/>
<path d="M0 94.4841C19.08 94.4841 34.547 79.0171 34.547 59.9371C34.547 40.8571 19.08 25.3901 0 25.3901V94.4841Z" fill="#CEE4E4"/>
<path d="M434.764 497.956C434.764 464.95 408.007 438.193 375 438.193C341.993 438.193 315.236 464.95 315.236 497.956H434.764Z" fill="#F6F6F6"/>
<path d="M409.547 497.956C409.547 478.876 394.08 463.409 375 463.409C355.92 463.409 340.453 478.876 340.453 497.956H409.547Z" fill="#EBC6B9"/>
<path d="M38.3093 231.639H30.9443V239.004H38.3093V231.639Z" fill="#FFFEFD"/>
<path d="M38.3093 211.639H30.9443V219.004H38.3093V211.639Z" fill="#FFFEFD"/>
<path d="M38.3093 191.639H30.9443V199.004H38.3093V191.639Z" fill="#FFFEFD"/>
<path d="M38.3093 171.639H30.9443V179.004H38.3093V171.639Z" fill="#FFFEFD"/>
<path d="M612.359 269.027V261.662H604.994V269.027H612.359Z" fill="#FFFEFD"/>
<path d="M632.359 269.027V261.662H624.994V269.027H632.359Z" fill="#FFFEFD"/>
<path d="M652.359 269.027V261.662H644.994V269.027H652.359Z" fill="#FFFEFD"/>
<path d="M672.359 269.027V261.662H664.994V269.027H672.359Z" fill="#FFFEFD"/>
<path d="M102.859 61.9011C102.859 71.0441 110.27 78.4551 119.413 78.4551C119.413 69.3121 112.002 61.9011 102.859 61.9011Z" fill="#EC9D5C"/>
<path d="M135.967 61.9011C135.967 71.0441 128.555 78.4551 119.413 78.4551C119.413 69.3121 126.825 61.9011 135.967 61.9011Z" fill="#EC9D5C"/>
<path d="M102.859 81.0732C102.859 90.2162 110.27 97.6272 119.413 97.6272C119.413 88.4852 112.002 81.0732 102.859 81.0732Z" fill="#EC9D5C"/>
<path d="M135.967 81.0732C135.967 90.2162 128.555 97.6272 119.413 97.6272C119.413 88.4852 126.825 81.0732 135.967 81.0732Z" fill="#EC9D5C"/>
<path d="M102.859 100.246C102.859 109.388 110.27 116.8 119.413 116.8C119.413 107.657 112.002 100.246 102.859 100.246Z" fill="#EC9D5C"/>
<path d="M135.967 100.246C135.967 109.388 128.555 116.8 119.413 116.8C119.413 107.657 126.825 100.246 135.967 100.246Z" fill="#EC9D5C"/>
<path d="M102.859 119.418C102.859 128.56 110.27 135.972 119.413 135.972C119.413 126.83 112.002 119.418 102.859 119.418Z" fill="#EC9D5C"/>
<path d="M135.967 119.418C135.967 128.561 128.555 135.972 119.413 135.972C119.413 126.83 126.825 119.418 135.967 119.418Z" fill="#EC9D5C"/>
<path d="M680.34 374.894C680.34 384.036 687.751 391.448 696.894 391.448C696.894 382.306 689.482 374.894 680.34 374.894Z" fill="#EC9D5C"/>
<path d="M713.448 374.894C713.448 384.036 706.037 391.448 696.894 391.448C696.894 382.306 704.305 374.894 713.448 374.894Z" fill="#EC9D5C"/>
<path d="M680.34 394.067C680.34 403.21 687.751 410.621 696.894 410.621C696.894 401.478 689.482 394.067 680.34 394.067Z" fill="#EC9D5C"/>
<path d="M713.448 394.067C713.448 403.209 706.037 410.621 696.894 410.621C696.894 401.478 704.305 394.067 713.448 394.067Z" fill="#EC9D5C"/>
<path d="M680.34 413.239C680.34 422.381 687.751 429.793 696.894 429.793C696.894 420.651 689.482 413.239 680.34 413.239Z" fill="#EC9D5C"/>
<path d="M713.448 413.239C713.448 422.381 706.037 429.793 696.894 429.793C696.894 420.651 704.305 413.239 713.448 413.239Z" fill="#EC9D5C"/>
<path d="M680.34 432.412C680.34 441.554 687.751 448.966 696.894 448.966C696.894 439.823 689.482 432.412 680.34 432.412Z" fill="#EC9D5C"/>
<path d="M713.448 432.412C713.448 441.554 706.037 448.966 696.894 448.966C696.894 439.823 704.305 432.412 713.448 432.412Z" fill="#EC9D5C"/>
<path d="M258.508 68.8271C274.518 68.8271 287.497 55.8487 287.497 39.8391C287.497 23.8294 274.518 10.8511 258.508 10.8511C242.499 10.8511 229.521 23.8294 229.521 39.8391C229.521 55.8487 242.499 68.8271 258.508 68.8271Z" fill="#CEE4E4"/>
<path d="M246.146 82.0681C244.927 81.8561 244.105 80.6951 244.317 79.4691C244.529 78.2491 245.697 77.4281 246.916 77.6461C248.136 77.8581 248.957 79.0191 248.745 80.2391C248.553 81.3371 247.603 82.1001 246.531 82.1001C246.409 82.1001 246.274 82.0941 246.146 82.0681ZM254.008 80.2331C253.796 79.0141 254.612 77.8521 255.831 77.6341C257.057 77.4221 258.219 78.2381 258.437 79.4571C258.649 80.6831 257.833 81.8451 256.614 82.0631C256.479 82.0821 256.351 82.0951 256.222 82.0951C255.15 82.0941 254.2 81.3301 254.008 80.2331ZM236.294 78.5001C235.222 77.8771 234.85 76.5041 235.472 75.4321C236.094 74.3541 237.468 73.9881 238.54 74.6101C239.618 75.2261 239.984 76.6001 239.368 77.6781C238.951 78.3971 238.193 78.8011 237.417 78.8011C237.039 78.8021 236.653 78.7051 236.294 78.5001ZM263.378 77.6531C262.761 76.5811 263.121 75.2011 264.199 74.5851C265.271 73.9631 266.645 74.3291 267.267 75.4001C267.889 76.4721 267.524 77.8451 266.452 78.4671C266.452 78.4671 266.452 78.4671 266.452 78.4741C266.099 78.6791 265.708 78.7751 265.329 78.7751C264.552 78.7761 263.795 78.3721 263.378 77.6531ZM228.271 71.7741C227.469 70.8241 227.59 69.4121 228.541 68.6101C229.49 67.8141 230.909 67.9361 231.705 68.8801C232.507 69.8301 232.386 71.2481 231.435 72.0501C231.018 72.4041 230.504 72.5771 229.991 72.5771C229.349 72.5761 228.714 72.3071 228.271 71.7741ZM271.298 72.0111C270.348 71.2151 270.226 69.7971 271.022 68.8471C271.824 67.8971 273.236 67.7681 274.186 68.5701C275.136 69.3661 275.258 70.7841 274.462 71.7351C274.019 72.2611 273.384 72.5371 272.742 72.5371C272.235 72.5381 271.722 72.3641 271.298 72.0111ZM223.015 62.7241C222.591 61.5561 223.189 60.2661 224.356 59.8421C225.518 59.4121 226.808 60.0151 227.238 61.1771C227.662 62.3381 227.058 63.6351 225.897 64.0591C225.64 64.1551 225.384 64.1941 225.127 64.1941C224.209 64.1941 223.349 63.6291 223.015 62.7241ZM276.824 64.0081C275.656 63.5841 275.059 62.2941 275.483 61.1321C275.907 59.9641 277.197 59.3611 278.365 59.7911C279.526 60.2151 280.13 61.5051 279.706 62.6661C279.373 63.5781 278.512 64.1491 277.595 64.1491C277.338 64.1491 277.081 64.1041 276.824 64.0081ZM221.186 52.4171C221.186 51.1721 222.187 50.1641 223.426 50.1641C224.671 50.1581 225.679 51.1651 225.679 52.4041C225.679 53.6421 224.677 54.6561 223.439 54.6561C222.193 54.6571 221.186 53.6561 221.186 52.4171ZM277.023 52.3531C277.023 52.3471 277.023 52.3401 277.023 52.3341C277.023 52.3021 277.023 52.2761 277.023 52.2511V52.2451C277.017 51.0061 278.018 49.9991 279.263 49.9921C280.502 49.9921 281.509 50.9871 281.516 52.2321C281.516 52.2511 281.516 52.2771 281.516 52.2971C281.516 52.3161 281.516 52.3351 281.516 52.3551C281.516 53.5941 280.508 54.6011 279.27 54.6011C278.03 54.5991 277.023 53.5911 277.023 52.3531ZM224.324 44.9721C223.156 44.5481 222.553 43.2581 222.976 42.0961C223.393 40.9281 224.683 40.3251 225.851 40.7491C227.019 41.1661 227.622 42.4561 227.199 43.6241C226.865 44.5351 226.005 45.1071 225.087 45.1071C224.831 45.1071 224.574 45.0621 224.324 44.9721ZM275.451 43.4771C275.021 42.3151 275.618 41.0251 276.78 40.5951C277.941 40.1651 279.231 40.7621 279.661 41.9241C280.091 43.0921 279.494 44.3821 278.333 44.8121C278.076 44.9021 277.813 44.9471 277.557 44.9471C276.638 44.9461 275.784 44.3881 275.451 43.4771ZM228.483 36.1791C227.527 35.3831 227.398 33.9651 228.194 33.0151C228.99 32.0651 230.408 31.9361 231.358 32.7321C232.314 33.5281 232.436 34.9461 231.647 35.8961C231.198 36.4291 230.562 36.7051 229.92 36.7051C229.413 36.7061 228.9 36.5321 228.483 36.1791ZM270.958 35.7811C270.156 34.8381 270.278 33.4191 271.228 32.6171C272.171 31.8151 273.59 31.9361 274.392 32.8801C275.188 33.8301 275.073 35.2421 274.129 36.0441C273.705 36.4031 273.185 36.5771 272.678 36.5771C272.036 36.5771 271.401 36.3081 270.958 35.7811ZM235.383 29.3371C234.76 28.2651 235.126 26.8851 236.198 26.2631C237.27 25.6411 238.644 26.0071 239.266 27.0781C239.895 28.1501 239.529 29.5231 238.457 30.1461C238.104 30.3581 237.712 30.4541 237.327 30.4541C236.557 30.4541 235.799 30.0561 235.383 29.3371ZM264.11 30.0691C263.038 29.4521 262.666 28.0791 263.282 27.0071C263.898 25.9291 265.278 25.5571 266.35 26.1791C267.428 26.7951 267.794 28.1621 267.178 29.2411C266.767 29.9661 266.01 30.3701 265.227 30.3701C264.848 30.3711 264.463 30.2741 264.11 30.0691ZM244.214 25.2621C243.996 24.0421 244.804 22.8741 246.03 22.6561C247.249 22.4381 248.417 23.2531 248.635 24.4721C248.853 25.6981 248.038 26.8601 246.812 27.0781H246.818C246.683 27.1041 246.548 27.1161 246.42 27.1161C245.356 27.1171 244.406 26.3461 244.214 25.2621ZM255.734 27.0531C254.508 26.8411 253.693 25.6791 253.898 24.4601C254.11 23.2341 255.271 22.4121 256.497 22.6241C256.497 22.6241 256.497 22.6241 256.491 22.6241C257.717 22.8361 258.539 23.9971 258.327 25.2171C258.141 26.3141 257.191 27.0851 256.113 27.0851C255.991 27.0851 255.862 27.0721 255.734 27.0531Z" fill="#EC9D5C"/>
<path d="M586.887 492.398C602.897 492.398 615.875 479.42 615.875 463.41C615.875 447.4 602.897 434.422 586.887 434.422C570.878 434.422 557.899 447.4 557.899 463.41C557.899 479.42 570.878 492.398 586.887 492.398Z" fill="#CEE4E4"/>
<path d="M603.306 484.745C602.087 484.533 601.265 483.372 601.477 482.146C601.689 480.926 602.857 480.105 604.076 480.323C605.296 480.535 606.117 481.696 605.905 482.916C605.713 484.014 604.763 484.777 603.691 484.777C603.57 484.777 603.435 484.77 603.306 484.745ZM611.168 482.909C610.956 481.69 611.772 480.528 612.991 480.31C614.217 480.098 615.379 480.914 615.597 482.133C615.809 483.359 614.993 484.521 613.774 484.739C613.639 484.758 613.511 484.771 613.382 484.771C612.311 484.77 611.361 484.006 611.168 482.909ZM593.455 481.177C592.383 480.554 592.011 479.181 592.633 478.109C593.255 477.031 594.629 476.665 595.701 477.287C596.779 477.903 597.145 479.277 596.529 480.355C596.112 481.074 595.354 481.478 594.578 481.478C594.199 481.478 593.814 481.382 593.455 481.177ZM620.539 480.329C619.922 479.257 620.282 477.877 621.36 477.261C622.432 476.639 623.806 477.005 624.428 478.076C625.05 479.148 624.685 480.521 623.613 481.143C623.613 481.143 623.613 481.143 623.613 481.15C623.26 481.355 622.869 481.451 622.49 481.451C621.713 481.452 620.956 481.048 620.539 480.329ZM585.432 474.45C584.63 473.501 584.751 472.088 585.702 471.286C586.652 470.49 588.07 470.612 588.866 471.556C589.668 472.505 589.547 473.924 588.597 474.726C588.18 475.08 587.666 475.253 587.153 475.253C586.51 475.252 585.875 474.983 585.432 474.45ZM628.459 474.688C627.509 473.892 627.387 472.474 628.183 471.524C628.985 470.574 630.397 470.445 631.347 471.248C632.297 472.044 632.419 473.462 631.623 474.413C631.18 474.939 630.545 475.215 629.903 475.215C629.396 475.214 628.883 475.04 628.459 474.688ZM580.175 465.401C579.751 464.233 580.349 462.943 581.516 462.519C582.678 462.089 583.968 462.692 584.398 463.854C584.822 465.015 584.218 466.312 583.057 466.736C582.8 466.832 582.544 466.871 582.287 466.871C581.369 466.871 580.51 466.305 580.175 465.401ZM633.985 466.684C632.817 466.26 632.22 464.97 632.644 463.808C633.068 462.64 634.358 462.037 635.526 462.467C636.687 462.891 637.291 464.181 636.867 465.342C636.534 466.254 635.673 466.825 634.756 466.825C634.499 466.826 634.242 466.78 633.985 466.684ZM578.346 455.093C578.346 453.848 579.347 452.84 580.586 452.84C581.831 452.834 582.839 453.841 582.839 455.08C582.839 456.318 581.837 457.333 580.599 457.333C579.354 457.333 578.346 456.332 578.346 455.093ZM634.184 455.029C634.184 455.023 634.184 455.016 634.184 455.01C634.184 454.978 634.184 454.952 634.184 454.927V454.921C634.178 453.682 635.179 452.675 636.424 452.668C637.663 452.668 638.67 453.663 638.677 454.908C638.677 454.927 638.677 454.953 638.677 454.973C638.677 454.992 638.677 455.011 638.677 455.031C638.677 456.269 637.669 457.277 636.431 457.277C635.191 457.276 634.184 456.268 634.184 455.029ZM581.485 447.648C580.317 447.224 579.714 445.935 580.137 444.772C580.554 443.604 581.844 443.001 583.012 443.424C584.18 443.841 584.783 445.131 584.36 446.299C584.026 447.21 583.166 447.782 582.248 447.782C581.992 447.783 581.735 447.738 581.485 447.648ZM632.611 446.153C632.181 444.991 632.778 443.701 633.94 443.271C635.101 442.841 636.391 443.438 636.821 444.6C637.251 445.768 636.654 447.058 635.493 447.488C635.236 447.578 634.973 447.623 634.716 447.623C633.798 447.623 632.945 447.064 632.611 446.153ZM585.644 438.855C584.688 438.059 584.559 436.641 585.355 435.691C586.151 434.741 587.569 434.612 588.519 435.408C589.475 436.204 589.597 437.622 588.808 438.572C588.359 439.105 587.723 439.381 587.081 439.381C586.574 439.382 586.061 439.208 585.644 438.855ZM628.119 438.457C627.317 437.514 627.439 436.095 628.388 435.293C629.331 434.491 630.75 434.612 631.552 435.556C632.348 436.506 632.233 437.918 631.289 438.72C630.865 439.079 630.345 439.253 629.838 439.253C629.197 439.254 628.562 438.984 628.119 438.457ZM592.543 432.014C591.92 430.942 592.286 429.562 593.358 428.94C594.43 428.318 595.804 428.684 596.426 429.755C597.055 430.827 596.689 432.2 595.618 432.823C595.265 433.035 594.873 433.131 594.488 433.131C593.718 433.13 592.96 432.733 592.543 432.014ZM621.271 432.746C620.199 432.129 619.827 430.756 620.443 429.684C621.059 428.606 622.439 428.234 623.511 428.856C624.589 429.472 624.955 430.839 624.339 431.918C623.928 432.643 623.171 433.047 622.388 433.047C622.008 433.047 621.624 432.951 621.271 432.746ZM601.375 427.938C601.157 426.718 601.965 425.55 603.191 425.332C604.41 425.114 605.578 425.929 605.796 427.148C606.014 428.374 605.199 429.536 603.973 429.754H603.979C603.844 429.78 603.709 429.792 603.581 429.792C602.517 429.793 601.567 429.023 601.375 427.938ZM612.895 429.729C611.669 429.517 610.854 428.355 611.059 427.136C611.271 425.91 612.432 425.088 613.658 425.3C613.658 425.3 613.658 425.3 613.652 425.3C614.878 425.512 615.7 426.673 615.488 427.893C615.302 428.991 614.352 429.761 613.274 429.761C613.152 429.761 613.023 429.748 612.895 429.729Z" fill="#EC9D5C"/>
</g>
<defs>
<clipPath id="clip0_2926_32">
<rect width="750" height="500" fill="white"/>
</clipPath>
</defs>
</svg>
