<svg width="750" height="500" viewBox="0 0 750 500" fill="none" xmlns="http://www.w3.org/2000/svg">
<g clip-path="url(#clip0_2932_2)">
<rect width="750" height="500" fill="#FFFEFD"/>
<mask id="mask0_2932_2" style="mask-type:luminance" maskUnits="userSpaceOnUse" x="0" y="0" width="750" height="500">
<path d="M750 0H0V500H750V0Z" fill="white"/>
</mask>
<g mask="url(#mask0_2932_2)">
<path d="M750 0H0V500H750V0Z" fill="#FFFEFD"/>
<mask id="mask1_2932_2" style="mask-type:luminance" maskUnits="userSpaceOnUse" x="0" y="0" width="750" height="500">
<path d="M750 0H0V500H750V0Z" fill="white"/>
</mask>
<g mask="url(#mask1_2932_2)">
<path d="M290.697 -63.314L834.507 333.109V-63.314H290.697Z" fill="#F6F6F6"/>
</g>
<mask id="mask2_2932_2" style="mask-type:luminance" maskUnits="userSpaceOnUse" x="0" y="0" width="750" height="500">
<path d="M750 0H0V500H750V0Z" fill="white"/>
</mask>
<g mask="url(#mask2_2932_2)">
<path d="M473.661 568.061L-70.1504 171.639V568.061H473.661Z" fill="#F6F6F6"/>
</g>
<mask id="mask3_2932_2" style="mask-type:luminance" maskUnits="userSpaceOnUse" x="0" y="0" width="750" height="500">
<path d="M750 0H0V500H750V0Z" fill="white"/>
</mask>
<g mask="url(#mask3_2932_2)">
<path d="M191.47 -27.375V95.987C191.47 102.607 188.79 108.587 184.46 112.927C180.12 117.257 174.14 119.937 167.53 119.937C154.3 119.937 143.58 109.207 143.58 95.987V64.095C143.54 50.895 132.83 40.215 119.63 40.215C113.02 40.215 107.03 42.895 102.7 47.225C98.5004 51.425 95.8504 57.175 95.6804 63.545V107.795C95.6804 112.365 93.8304 116.505 90.8404 119.495C87.8404 122.495 83.7004 124.345 79.1304 124.345C69.9904 124.345 62.5804 116.935 62.5804 107.795V27.315C62.5804 14.085 51.8604 3.365 38.6304 3.365C32.0204 3.365 26.0304 6.045 21.7004 10.375C17.5004 14.575 14.8504 20.325 14.6904 26.695V-27.375H191.47Z" fill="#EBC6B9"/>
<path d="M38.3093 275.765C6.44336 275.765 -19.3887 249.933 -19.3887 218.068V-9.04712H95.9993L96.0073 218.066C96.0073 249.932 70.1753 275.765 38.3093 275.765Z" fill="#EBC6B9"/>
<path d="M563.698 262.119C563.698 227.454 591.8 199.352 626.465 199.352H873.535V324.879L626.466 324.887C591.801 324.888 563.698 296.785 563.698 262.119Z" fill="#EBC6B9"/>
<path d="M750 202.356C716.994 202.356 690.237 229.113 690.237 262.12C690.237 295.127 716.994 321.884 750 321.884V202.356Z" fill="#F6F6F6"/>
<path d="M750 227.572C730.92 227.572 715.453 243.039 715.453 262.119C715.453 281.199 730.92 296.666 750 296.666V227.572Z" fill="#CEE4E4"/>
<path d="M454.487 651.602H287.847C251.06 651.602 221.238 621.78 221.238 584.993V484.789C221.238 448.002 251.06 418.18 287.847 418.18H454.488C491.275 418.18 521.097 448.002 521.097 484.789V584.993C521.096 621.781 491.274 651.602 454.487 651.602Z" fill="#E8E5E3"/>
<path d="M107.953 432.863C107.953 434.491 106.633 435.81 105.006 435.81C103.378 435.81 102.059 434.491 102.059 432.863C102.059 431.235 103.378 429.916 105.006 429.916C106.634 429.915 107.953 431.235 107.953 432.863Z" stroke="white" stroke-width="0.9157" stroke-miterlimit="10"/>
<path d="M152.229 501.72H56.6104V386.609C56.6104 360.205 78.0153 338.8 104.419 338.8C130.823 338.8 152.228 360.205 152.228 386.609V501.72H152.229Z" stroke="#142341" stroke-width="2" stroke-miterlimit="10"/>
<path d="M74.9248 483.407V386.609C74.9248 370.344 88.1568 357.113 104.421 357.113C120.685 357.113 133.917 370.345 133.917 386.609V483.407H74.9248Z" fill="#CEE4E4"/>
<path d="M185.011 442.564H96.8947C92.5417 442.564 89.0127 439.035 89.0127 434.682C89.0127 430.329 92.5417 426.8 96.8947 426.8H185.011C189.364 426.8 192.893 430.329 192.893 434.682C192.893 439.035 189.364 442.564 185.011 442.564Z" fill="#FFFEFD"/>
<path d="M201.913 472.842H172.3V502.455H201.913V472.842Z" fill="#EBC6B9"/>
<path d="M158.103 338.878L114.426 391.198" stroke="#142341" stroke-width="2" stroke-miterlimit="10"/>
<path d="M44.7157 463.306L32.8057 477.573" stroke="#142341" stroke-width="2" stroke-miterlimit="10"/>
</g>
<mask id="mask4_2932_2" style="mask-type:luminance" maskUnits="userSpaceOnUse" x="0" y="0" width="750" height="500">
<path d="M750 0H0V500H750V0Z" fill="white"/>
</mask>
<g mask="url(#mask4_2932_2)">
<path d="M700.123 77.3001C695.539 77.3001 690.954 75.5551 687.464 72.0651C684.083 68.6831 682.22 64.1871 682.22 59.4061C682.22 54.6241 684.082 50.1281 687.464 46.7471L761.086 -26.8739C764.467 -30.2559 768.963 -32.1179 773.745 -32.1179C778.527 -32.1179 783.023 -30.2559 786.404 -26.8739C793.384 -19.8939 793.384 -8.53694 786.404 -1.55694L712.782 72.0661C709.292 75.5551 704.707 77.3001 700.123 77.3001ZM688.878 70.6511C695.078 76.8511 705.167 76.8511 711.368 70.6511L784.99 -2.97194C791.19 -9.17194 791.19 -19.2609 784.99 -25.4609C781.986 -28.4649 777.993 -30.1189 773.745 -30.1189C769.497 -30.1189 765.504 -28.4649 762.5 -25.4609L688.878 48.1611C685.875 51.1651 684.22 55.1581 684.22 59.4061C684.221 63.6531 685.875 67.6471 688.878 70.6511Z" fill="#142341"/>
</g>
<mask id="mask5_2932_2" style="mask-type:luminance" maskUnits="userSpaceOnUse" x="0" y="0" width="750" height="500">
<path d="M750 0H0V500H750V0Z" fill="white"/>
</mask>
<g mask="url(#mask5_2932_2)">
<path d="M-23.9671 404.867C-28.5511 404.867 -33.1361 403.122 -36.6261 399.632C-40.0071 396.25 -41.8701 391.754 -41.8701 386.973C-41.8701 382.191 -40.0081 377.695 -36.6261 374.314L36.9959 300.693C40.3769 297.311 44.8729 295.449 49.6549 295.449C54.4369 295.449 58.9329 297.311 62.3139 300.693C69.2939 307.673 69.2939 319.03 62.3139 326.01L-11.3081 399.633C-14.7981 403.122 -19.3831 404.867 -23.9671 404.867ZM-35.2121 398.218C-29.0121 404.418 -18.9231 404.418 -12.7221 398.218L60.8999 324.595C67.0999 318.395 67.0999 308.306 60.8999 302.106C57.8959 299.102 53.9029 297.448 49.6549 297.448C45.4069 297.448 41.4139 299.102 38.4099 302.106L-35.2121 375.728C-38.2151 378.732 -39.8701 382.725 -39.8701 386.973C-39.8691 391.22 -38.2151 395.214 -35.2121 398.218Z" fill="#142341"/>
</g>
<path d="M0 119.701C33.006 119.701 59.763 92.9441 59.763 59.9371C59.763 26.9301 33.006 0.173096 0 0.173096V119.701Z" fill="#F6F6F6"/>
<path d="M0 94.4841C19.08 94.4841 34.547 79.0171 34.547 59.9371C34.547 40.8571 19.08 25.3901 0 25.3901V94.4841Z" fill="#CEE4E4"/>
<path d="M434.528 502.763C434.528 469.757 407.771 443 374.764 443C341.757 443 315 469.757 315 502.763H434.528Z" fill="#F6F6F6"/>
<path d="M409.311 502.763C409.311 483.683 393.844 468.216 374.764 468.216C355.684 468.216 340.217 483.683 340.217 502.763H409.311Z" fill="#EBC6B9"/>
<path d="M38.3093 231.639H30.9443V239.004H38.3093V231.639Z" fill="#FFFEFD"/>
<path d="M38.3093 211.639H30.9443V219.004H38.3093V211.639Z" fill="#FFFEFD"/>
<path d="M38.3093 191.639H30.9443V199.004H38.3093V191.639Z" fill="#FFFEFD"/>
<path d="M38.3093 171.639H30.9443V179.004H38.3093V171.639Z" fill="#FFFEFD"/>
<path d="M612.359 269.027V261.662H604.994V269.027H612.359Z" fill="#FFFEFD"/>
<path d="M632.359 269.027V261.662H624.994V269.027H632.359Z" fill="#FFFEFD"/>
<path d="M652.359 269.027V261.662H644.994V269.027H652.359Z" fill="#FFFEFD"/>
<path d="M672.359 269.027V261.662H664.994V269.027H672.359Z" fill="#FFFEFD"/>
<path d="M102.859 61.9011C102.859 71.0441 110.27 78.4551 119.413 78.4551C119.413 69.3121 112.002 61.9011 102.859 61.9011Z" fill="#EC9D5C"/>
<path d="M135.967 61.9011C135.967 71.0441 128.555 78.4551 119.413 78.4551C119.413 69.3121 126.825 61.9011 135.967 61.9011Z" fill="#EC9D5C"/>
<path d="M102.859 81.0732C102.859 90.2162 110.27 97.6272 119.413 97.6272C119.413 88.4852 112.002 81.0732 102.859 81.0732Z" fill="#EC9D5C"/>
<path d="M135.967 81.0732C135.967 90.2162 128.555 97.6272 119.413 97.6272C119.413 88.4852 126.825 81.0732 135.967 81.0732Z" fill="#EC9D5C"/>
<path d="M102.859 100.246C102.859 109.388 110.27 116.8 119.413 116.8C119.413 107.657 112.002 100.246 102.859 100.246Z" fill="#EC9D5C"/>
<path d="M135.967 100.246C135.967 109.388 128.555 116.8 119.413 116.8C119.413 107.657 126.825 100.246 135.967 100.246Z" fill="#EC9D5C"/>
<path d="M102.859 119.418C102.859 128.56 110.27 135.972 119.413 135.972C119.413 126.83 112.002 119.418 102.859 119.418Z" fill="#EC9D5C"/>
<path d="M135.967 119.418C135.967 128.561 128.555 135.972 119.413 135.972C119.413 126.83 126.825 119.418 135.967 119.418Z" fill="#EC9D5C"/>
<path d="M680.34 374.894C680.34 384.036 687.751 391.448 696.894 391.448C696.894 382.306 689.482 374.894 680.34 374.894Z" fill="#EC9D5C"/>
<path d="M713.448 374.894C713.448 384.036 706.037 391.448 696.894 391.448C696.894 382.306 704.305 374.894 713.448 374.894Z" fill="#EC9D5C"/>
<path d="M680.34 394.067C680.34 403.21 687.751 410.621 696.894 410.621C696.894 401.478 689.482 394.067 680.34 394.067Z" fill="#EC9D5C"/>
<path d="M713.448 394.067C713.448 403.209 706.037 410.621 696.894 410.621C696.894 401.478 704.305 394.067 713.448 394.067Z" fill="#EC9D5C"/>
<path d="M680.34 413.239C680.34 422.381 687.751 429.793 696.894 429.793C696.894 420.651 689.482 413.239 680.34 413.239Z" fill="#EC9D5C"/>
<path d="M713.448 413.239C713.448 422.381 706.037 429.793 696.894 429.793C696.894 420.651 704.305 413.239 713.448 413.239Z" fill="#EC9D5C"/>
<path d="M680.34 432.412C680.34 441.554 687.751 448.966 696.894 448.966C696.894 439.823 689.482 432.412 680.34 432.412Z" fill="#EC9D5C"/>
<path d="M713.448 432.412C713.448 441.554 706.037 448.966 696.894 448.966C696.894 439.823 704.305 432.412 713.448 432.412Z" fill="#EC9D5C"/>
</g>
</g>
<defs>
<clipPath id="clip0_2932_2">
<rect width="750" height="500" fill="white"/>
</clipPath>
</defs>
</svg>
